<?xml version="1.0" encoding="UTF-8" standalone="no"?>
<!-- Created with Inkscape (http://www.inkscape.org/) -->

<svg
   xmlns:dc="http://purl.org/dc/elements/1.1/"
   xmlns:cc="http://creativecommons.org/ns#"
   xmlns:rdf="http://www.w3.org/1999/02/22-rdf-syntax-ns#"
   xmlns:svg="http://www.w3.org/2000/svg"
   xmlns="http://www.w3.org/2000/svg"
   xmlns:sodipodi="http://sodipodi.sourceforge.net/DTD/sodipodi-0.dtd"
   xmlns:inkscape="http://www.inkscape.org/namespaces/inkscape"
   width="210mm"
   height="297mm"
   viewBox="0 0 210 297"
   version="1.1"
   id="svg8"
   inkscape:version="0.92.3 (5aff6ba, 2018-11-25)"
   sodipodi:docname="icons.svg">
  <defs
     id="defs2" />
  <sodipodi:namedview
     id="base"
     pagecolor="#ffffff"
     bordercolor="#666666"
     borderopacity="1.0"
     inkscape:pageopacity="0.0"
     inkscape:pageshadow="2"
     inkscape:zoom="0.98994949"
     inkscape:cx="423.1045"
     inkscape:cy="623.73368"
     inkscape:document-units="mm"
     inkscape:current-layer="layer1"
     showgrid="false"
     inkscape:window-width="1853"
     inkscape:window-height="1025"
     inkscape:window-x="67"
     inkscape:window-y="27"
     inkscape:window-maximized="1" />
  <metadata
     id="metadata5">
    <rdf:RDF>
      <cc:Work
         rdf:about="">
        <dc:format>image/svg+xml</dc:format>
        <dc:type
           rdf:resource="http://purl.org/dc/dcmitype/StillImage" />
        <dc:title />
      </cc:Work>
    </rdf:RDF>
  </metadata>
  <g
     inkscape:label="Layer 1"
     inkscape:groupmode="layer"
     id="layer1">
    <g
       id="g868"
       transform="matrix(0.64250364,0,0,0.64250364,-20.457391,-1.0733981)"
       inkscape:export-filename="/home/filip/projects/Ideas Almanac/assets/surprise.png"
       inkscape:export-xdpi="38.880001"
       inkscape:export-ydpi="38.880001">
      <rect
         y="15.687825"
         x="61.646683"
         height="101.6756"
         width="101.6756"
         id="rect837"
         style="opacity:1;fill:#7cafc8;fill-opacity:1;stroke:none;stroke-width:2.34934497;stroke-linecap:round;stroke-linejoin:round;stroke-miterlimit:4;stroke-dasharray:none;stroke-dashoffset:0;stroke-opacity:1" />
      <rect
         y="69.298172"
         x="75.207199"
         height="40.480286"
         width="54.764526"
         id="rect842"
         style="opacity:1;fill:#e71d1d;fill-opacity:1;stroke:none;stroke-width:3.06029415;stroke-linecap:round;stroke-linejoin:round;stroke-miterlimit:4;stroke-dasharray:none;stroke-dashoffset:0;stroke-opacity:1"
         transform="rotate(-6.8011928)" />
      <g
         transform="matrix(0.82473687,-0.09836133,0.09836133,0.82473687,45.779001,19.061481)"
         style="fill:#e7961d;fill-opacity:1"
         id="g835">
        <rect
           style="opacity:1;fill:#ffffff;fill-opacity:1;stroke:none;stroke-width:1.8287909;stroke-linecap:round;stroke-linejoin:round;stroke-miterlimit:4;stroke-dasharray:none;stroke-dashoffset:0;stroke-opacity:1"
           id="rect815"
           width="32.726547"
           height="24.190477"
           x="36.169853"
           y="51.315475" />
        <rect
           y="81.364586"
           x="36.169853"
           height="24.190477"
           width="32.726547"
           id="rect817"
           style="opacity:1;fill:#ffffff;fill-opacity:1;stroke:none;stroke-width:1.8287909;stroke-linecap:round;stroke-linejoin:round;stroke-miterlimit:4;stroke-dasharray:none;stroke-dashoffset:0;stroke-opacity:1" />
        <rect
           y="51.315475"
           x="74.923538"
           height="24.190477"
           width="31.959467"
           id="rect819"
           style="opacity:1;fill:#ffffff;fill-opacity:1;stroke:none;stroke-width:1.80723119;stroke-linecap:round;stroke-linejoin:round;stroke-miterlimit:4;stroke-dasharray:none;stroke-dashoffset:0;stroke-opacity:1" />
        <rect
           style="opacity:1;fill:#ffffff;fill-opacity:1;stroke:none;stroke-width:1.80723119;stroke-linecap:round;stroke-linejoin:round;stroke-miterlimit:4;stroke-dasharray:none;stroke-dashoffset:0;stroke-opacity:1"
           id="rect821"
           width="31.959467"
           height="24.190477"
           x="74.923538"
           y="81.364586" />
        <path
           style="opacity:1;fill:#e71d1d;fill-opacity:1;stroke:none;stroke-width:2;stroke-linecap:round;stroke-linejoin:round;stroke-miterlimit:4;stroke-dasharray:none;stroke-dashoffset:0;stroke-opacity:1"
           d="M 80.976953,23.517621 90.418994,38.788157 72.576578,49.820436 Z"
           id="rect823"
           inkscape:connector-curvature="0"
           sodipodi:nodetypes="cccc" />
        <path
           style="opacity:1;fill:#e71d1d;fill-opacity:1;stroke:none;stroke-width:2.22469282;stroke-linecap:round;stroke-linejoin:round;stroke-miterlimit:4;stroke-dasharray:none;stroke-dashoffset:0;stroke-opacity:1"
           d="M 71.707952,49.594927 52.22979,38.962479 49.30896,22.771481 Z"
           id="rect826"
           inkscape:connector-curvature="0"
           sodipodi:nodetypes="cccc" />
      </g>
    </g>
    <g
       id="g878"
       inkscape:export-filename="/home/filip/projects/Ideas Almanac/assets/placeholder.png"
       inkscape:export-xdpi="38.880001"
       inkscape:export-ydpi="38.880001">
      <rect
         style="opacity:1;fill:#ff6b58;fill-opacity:0.995;stroke:none;stroke-width:1.81930137;stroke-linecap:round;stroke-linejoin:round;stroke-miterlimit:4;stroke-dasharray:none;stroke-dashoffset:0;stroke-opacity:1"
         id="rect835"
         width="65.327003"
         height="65.327003"
         x="101.30225"
         y="8.9774933" />
      <ellipse
         ry="7.3333626"
         rx="27.704699"
         cy="63.582863"
         cx="133.96576"
         id="path873"
         style="opacity:1;fill:#e5ee00;fill-opacity:1;stroke:none;stroke-width:2.21219587;stroke-linecap:round;stroke-linejoin:round;stroke-miterlimit:4;stroke-dasharray:none;stroke-dashoffset:0;stroke-opacity:1" />
      <path
         inkscape:connector-curvature="0"
         id="rect849"
         d="m 133.89208,15.148652 c -9.49191,7.8e-4 -18.95945,4.73391 -19.18291,14.19643 h -0.004 v 7.30774 3.65387 l 17.6428,11.79686 -17.6428,11.79645 h 3.23604 l 16.02478,-10.71454 16.02478,10.71454 h 3.23645 l -17.64365,-11.79645 17.64321,-11.79686 v -3.65387 -7.30774 h -0.008 c -0.31913,-9.4656 -9.83439,-14.19724 -19.3263,-14.19643 z m 0.0735,3.07496 c 7.02149,0.002 14.04206,2.91876 15.74098,8.74572 h -31.48237 c 1.69753,-5.83338 8.71887,-8.74756 15.74139,-8.74572 z m -16.03128,10.10255 h 32.06249 c 0.0643,0.46174 0.0981,0.93892 0.0981,1.43232 v 2.15857 h -32.25828 v -2.15857 c 0,-0.49334 0.0335,-0.97065 0.0977,-1.43232 z m -0.0977,5.05267 h 32.25828 v 3.60866 c -10.47116,1.03522 -21.20125,1.12101 -32.25828,0.008 z m 0.5789,7.24517 c 10.01679,0.77833 20.34073,0.86557 31.08312,0.0113 l -15.53308,10.38594 z"
         style="opacity:1;fill:#ffffff;fill-opacity:1;stroke:none;stroke-width:1.56240571;stroke-linecap:round;stroke-linejoin:round;stroke-miterlimit:4;stroke-dasharray:none;stroke-dashoffset:0;stroke-opacity:1" />
    </g>
    <g
       id="g983"
       inkscape:export-filename="/home/filip/avatar.png"
       inkscape:export-xdpi="116.64"
       inkscape:export-ydpi="116.64"
       transform="translate(-27.970238,-15.875)">
      <rect
         y="102.09003"
         x="36.592823"
         height="130.65401"
         width="130.65401"
         id="rect955"
         style="opacity:1;fill:#fffbe8;fill-opacity:1;stroke:none;stroke-width:2.8335526;stroke-linecap:round;stroke-linejoin:round;stroke-miterlimit:4;stroke-dasharray:none;stroke-dashoffset:0;stroke-opacity:1" />
      <g
         transform="translate(11.750098,0.25068719)"
         id="g965">
        <path
           style="opacity:1;fill:#fffbe8;fill-opacity:1;stroke:none;stroke-width:2;stroke-linecap:round;stroke-linejoin:round;stroke-miterlimit:4;stroke-dasharray:none;stroke-dashoffset:0;stroke-opacity:1"
           d="m 90.572554,120.24887 c 15.789386,1.28334 25.519636,17.69927 26.411086,34.2541 -0.52647,4.29122 -0.42942,8.7538 1.85565,17.08362 0.53284,4.3306 -1.98209,6.48423 -3.79744,9.13755 -2.04565,8.50396 -5.26691,15.48654 -10.33813,20.07507 -15.609639,6.75812 -30.778881,22.65849 -39.427676,-3.22256 -2.142641,-5.88323 -3.832064,-11.70981 -4.55365,-17.4154 -0.747245,-6.32961 -0.725715,-12.85484 0.273406,-18.93496 -0.374802,-3.48213 -1.886542,-7.15375 -0.330617,-10.31409 7.057312,-22.98844 15.583691,-29.78441 29.907371,-30.66333 z"
           id="rect903"
           inkscape:connector-curvature="0"
           sodipodi:nodetypes="cccccccccc" />
        <path
           style="opacity:1;fill:#000000;fill-opacity:0.12000002;stroke:none;stroke-width:2;stroke-linecap:round;stroke-linejoin:round;stroke-miterlimit:4;stroke-dasharray:none;stroke-dashoffset:0;stroke-opacity:1"
           d="m 90.572554,120.24887 25.567336,9.44042 2.73363,49.46482 c -1.37248,0.35025 -3.02078,0.51601 -3.78589,1.53795 -0.18135,0.24223 -0.17119,0.48526 -0.25877,0.84452 -2.92435,11.99638 -16.755302,24.27915 -32.66858,24.52653 -1.766869,-7.93292 -3.454575,-24.33636 -5.303591,-23.47952 -2.405581,-1.22923 -2.683832,-2.08304 -3.277457,-2.9925 5.52383,-28.76366 7.740708,-54.2132 16.993322,-59.34222 z"
           id="rect952"
           inkscape:connector-curvature="0"
           sodipodi:nodetypes="cccsscccc" />
        <path
           inkscape:connector-curvature="0"
           style="opacity:1;fill:#030303;fill-opacity:1;stroke:none;stroke-width:7.55905533;stroke-linecap:round;stroke-linejoin:round;stroke-miterlimit:4;stroke-dasharray:none;stroke-dashoffset:0;stroke-opacity:1"
           d="m 370.58398,581.88086 c -16.93258,0.16013 -33.8959,1.77798 -50.87109,3.85547 -13.68981,3.01614 -27.48823,3.52942 -41.41601,1.07031 -25.62817,-4.8209 -50.72658,-3.60733 -75.64454,-0.38086 0,0 -10.07908,2.67294 -10.28711,4.17383 -0.31747,2.29062 6.84961,22.07812 6.84961,22.07812 3.64189,12.6508 6.52108,25.83141 12.16016,34.01368 7.43368,10.78624 48.21931,16.08588 64.13281,5.71875 7.83239,-5.10255 7.50023,-26.38692 15.85742,-38.75391 l 0.79102,-4.51758 h 7.11719 l 6.91406,2.85156 c 4.69022,14.34826 9.20085,33.15677 19.42773,41.32618 14.66028,11.7109 57.88363,14.71597 81.00977,5.23828 12.06618,-4.94506 10.99917,-18.23023 16.22656,-33.33008 2.83782,-6.77775 4.23216,-13.26629 11.82032,-20.99414 l 7.22851,8.65039 c 4.11568,-2.85022 7.64559,-6.54064 7.93359,-14.88281 l -14.42578,-8.27149 -14.13281,-3.5957 c -16.85701,-3.24009 -33.75882,-4.41012 -50.69141,-4.25 z m -2.83007,5.44922 c 17.3958,-0.13225 34.23037,2.45193 50.42773,9.59765 1.65853,9.87503 0.8305,19.0172 -0.86133,28.05469 -1.34477,7.43069 -3.45968,25.42527 -12.89062,28.99024 -21.3868,8.08433 -53.9332,7.42626 -71.74414,-3.22071 -12.18251,-7.28243 -15.64751,-25.20771 -20.29297,-41.61328 0.13661,-7.80461 1.99231,-14.02777 8.05664,-16.3789 16.16913,-3.08167 31.95545,-5.313 47.30469,-5.42969 z m -126.37696,0.8418 c 10.51576,-0.10767 21.42715,1.20406 32.79297,4.14648 9.43984,5.29973 10.44563,11.05487 11.26953,16.82031 -5.13573,16.16209 -6.29679,32.5324 -13.93945,38.49219 -14.47414,11.28699 -41.56885,5.86448 -56.10547,-2.13281 -8.39731,-4.61976 -10.32568,-21.64532 -13.88086,-33.49414 -0.3938,-4.03185 -0.39446,-12.91356 1.13867,-16.82813 12.33802,-4.3808 25.20435,-6.86549 38.72461,-7.0039 z"
           transform="scale(0.26458333)"
           id="rect858" />
        <path
           style="opacity:1;fill:#000000;fill-opacity:1;stroke:none;stroke-width:2;stroke-linecap:round;stroke-linejoin:round;stroke-miterlimit:4;stroke-dasharray:none;stroke-dashoffset:0;stroke-opacity:1"
           d="m 80.114045,182.8759 c 5.643658,1.33861 12.700018,-0.0473 16.102989,5.61266 0.81411,2.06061 0.256817,2.97839 0.07615,4.21002 -0.818791,-1.22893 -1.672415,-2.41142 -3.016113,-2.94048 -3.662009,-0.5645 -7.024609,-1.4783 -11.693042,-0.86863 -3.678215,-2.12715 -2.238542,-4.05745 -1.469982,-6.01357 z"
           id="rect906"
           inkscape:connector-curvature="0"
           sodipodi:nodetypes="cccccc" />
        <path
           style="opacity:1;fill:#000000;fill-opacity:1;stroke:none;stroke-width:2;stroke-linecap:round;stroke-linejoin:round;stroke-miterlimit:4;stroke-dasharray:none;stroke-dashoffset:0;stroke-opacity:1"
           d="m 68.755082,183.77795 c 2.391019,-0.0168 5.142583,-0.71201 7.984677,-1.03567 1.436984,1.7617 2.558618,3.52958 -0.467722,5.3788 -3.288988,-0.20045 -4.985211,-0.40091 -7.216277,-0.60136 -1.018417,-0.24786 -1.15327,0.70339 -1.606663,1.22235 -1.037719,-3.09446 -0.412497,-4.5824 1.305985,-4.96412 z"
           id="rect909"
           inkscape:connector-curvature="0"
           sodipodi:nodetypes="cccccc" />
        <path
           style="fill:#000000;fill-opacity:1;stroke:none;stroke-width:0.26458332px;stroke-linecap:butt;stroke-linejoin:miter;stroke-opacity:1"
           d="m 52.53869,146.1875 -2.267857,-5.33892 -0.519716,-3.54352 3.165549,-1.08668 1.606399,-3.59078 2.740327,-0.23623 2.976562,-2.07887 -0.330729,-3.73252 2.220611,-3.35454 -0.04725,-2.92931 2.126115,-3.07106 1.228424,-3.30729 3.401784,-3.16555 3.96875,-1.55915 3.260045,-2.45685 2.173365,2.97657 2.740326,0.33072 2.078868,-1.32291 2.69308,-1.79539 4.393975,1.55915 4.582962,2.4096 c 0,0 3.732514,-3.77976 3.96875,-3.77976 0.236233,0 4.7247,2.83482 4.7247,2.83482 l 3.59078,3.77976 4.29948,0.94494 4.53571,-1.98437 4.29948,0.99219 0.85045,3.87425 2.17336,0.66146 2.59756,2.02865 0.13626,4.4137 3.3138,3.66851 -2.89182,5.01649 1.81124,4.80798 2.4483,1.17941 -2.42489,7.78057 2.10249,6.59421 -3.83775,5.82073 2.87341,5.51569 -4.19147,5.24028 -2.12612,4.29948 1.70089,2.55134 0.85045,2.03162 -2.50409,0.8032 -2.4096,2.36235 -3.07105,-1.6064 -2.50875,-10e-4 0.42987,-9.30673 1.7009,-7.41778 -1.97087,-7.96781 0.74245,-4.64714 -3.77977,-11.81176 -6.09486,-10.2526 -4.44122,-3.54341 -7.654024,-3.59077 -5.669643,-0.47247 -4.204985,0.89769 -5.905876,2.88207 -6.756326,5.66964 -3.732514,7.65402 -3.874257,8.92969 -2.645833,4.44122 0.425223,2.7167 -2.267964,0.79382 -2.858338,-0.10873 -1.204799,-1.51191 -0.803198,-3.87426 -2.267858,-2.97656 z"
           id="path940"
           inkscape:connector-curvature="0"
           sodipodi:nodetypes="cccccccccccccccccccccsccccccccccccccccccccccccccccccccccccccccccccccc" />
        <path
           style="opacity:1;fill:#000000;fill-opacity:1;stroke:none;stroke-width:2;stroke-linecap:round;stroke-linejoin:round;stroke-miterlimit:4;stroke-dasharray:none;stroke-dashoffset:0;stroke-opacity:1"
           d="m 60.81828,181.50318 c 4.624711,12.85273 13.961549,30.98308 29.04411,19.72615 4.961021,-3.70268 11.62085,-17.22564 24.96705,-21.91932 1.72284,7.86059 -19.59628,44.2143 -33.828867,48.28645 -6.115826,-2.25763 -8.818641,-4.43621 -10.360137,-7.22164 -3.334033,-6.94921 -8.908766,-30.24732 -9.822156,-38.87164 z"
           id="rect912"
           inkscape:connector-curvature="0"
           sodipodi:nodetypes="cscccc" />
        <path
           style="opacity:1;fill:#080808;fill-opacity:0.99500002;stroke:none;stroke-width:2;stroke-linecap:round;stroke-linejoin:round;stroke-miterlimit:4;stroke-dasharray:none;stroke-dashoffset:0;stroke-opacity:1"
           d="m 75.359002,195.60788 c 3.106126,0.85209 6.689897,1.02184 10.677828,0.61421 l 2.504093,2.69309 -7.743425,4.0523 -7.139389,-3.62708 z"
           id="rect945"
           inkscape:connector-curvature="0"
           sodipodi:nodetypes="cccccc" />
      </g>
    </g>
    <g
       id="g1052"
       transform="translate(-9.3549108,-10.866816)"
       inkscape:export-xdpi="44.419998"
       inkscape:export-ydpi="44.419998">
      <g
         inkscape:export-ydpi="20.4"
         inkscape:export-xdpi="20.4"
         transform="matrix(0.48931681,0,0,0.48931681,50.657455,56.489187)"
         id="g1034">
        <g
           transform="matrix(0.58341444,0,0,0.58341444,195.33904,24.48364)"
           inkscape:export-ydpi="38.880001"
           inkscape:export-xdpi="38.880001"
           inkscape:export-filename="/home/filip/projects/Ideas Almanac/assets/me.png"
           id="g1017">
          <g
             id="g1015"
             transform="translate(11.750098,0.25068719)">
            <path
               sodipodi:nodetypes="cccccccccc"
               inkscape:connector-curvature="0"
               id="path999"
               d="m 90.572554,120.24887 c 15.789386,1.28334 25.519636,17.69927 26.411086,34.2541 -0.52647,4.29122 -0.42942,8.7538 1.85565,17.08362 0.53284,4.3306 -1.98209,6.48423 -3.79744,9.13755 -2.04565,8.50396 -5.26691,15.48654 -10.33813,20.07507 -15.609639,6.75812 -30.778881,22.65849 -39.427676,-3.22256 -2.142641,-5.88323 -3.832064,-11.70981 -4.55365,-17.4154 -0.747245,-6.32961 -0.725715,-12.85484 0.273406,-18.93496 -0.374802,-3.48213 -1.886542,-7.15375 -0.330617,-10.31409 7.057312,-22.98844 15.583691,-29.78441 29.907371,-30.66333 z"
               style="opacity:1;fill:#ffffff;fill-opacity:0;stroke:none;stroke-width:2;stroke-linecap:round;stroke-linejoin:round;stroke-miterlimit:4;stroke-dasharray:none;stroke-dashoffset:0;stroke-opacity:1" />
            <path
               sodipodi:nodetypes="cccsscccc"
               inkscape:connector-curvature="0"
               id="path1001"
               d="m 90.572554,120.24887 25.567336,9.44042 2.73363,49.46482 c -1.37248,0.35025 -3.02078,0.51601 -3.78589,1.53795 -0.18135,0.24223 -0.17119,0.48526 -0.25877,0.84452 -2.92435,11.99638 -16.755302,24.27915 -32.66858,24.52653 -1.766869,-7.93292 -3.454575,-24.33636 -5.303591,-23.47952 -2.405581,-1.22923 -2.683832,-2.08304 -3.277457,-2.9925 5.52383,-28.76366 7.740708,-54.2132 16.993322,-59.34222 z"
               style="opacity:1;fill:#000000;fill-opacity:0.12000002;stroke:none;stroke-width:2;stroke-linecap:round;stroke-linejoin:round;stroke-miterlimit:4;stroke-dasharray:none;stroke-dashoffset:0;stroke-opacity:1" />
            <path
               id="path1003"
               transform="scale(0.26458333)"
               d="m 370.58398,581.88086 c -16.93258,0.16013 -33.8959,1.77798 -50.87109,3.85547 -13.68981,3.01614 -27.48823,3.52942 -41.41601,1.07031 -25.62817,-4.8209 -50.72658,-3.60733 -75.64454,-0.38086 0,0 -10.07908,2.67294 -10.28711,4.17383 -0.31747,2.29062 6.84961,22.07812 6.84961,22.07812 3.64189,12.6508 6.52108,25.83141 12.16016,34.01368 7.43368,10.78624 48.21931,16.08588 64.13281,5.71875 7.83239,-5.10255 7.50023,-26.38692 15.85742,-38.75391 l 0.79102,-4.51758 h 7.11719 l 6.91406,2.85156 c 4.69022,14.34826 9.20085,33.15677 19.42773,41.32618 14.66028,11.7109 57.88363,14.71597 81.00977,5.23828 12.06618,-4.94506 10.99917,-18.23023 16.22656,-33.33008 2.83782,-6.77775 4.23216,-13.26629 11.82032,-20.99414 l 7.22851,8.65039 c 4.11568,-2.85022 7.64559,-6.54064 7.93359,-14.88281 l -14.42578,-8.27149 -14.13281,-3.5957 c -16.85701,-3.24009 -33.75882,-4.41012 -50.69141,-4.25 z m -2.83007,5.44922 c 17.3958,-0.13225 34.23037,2.45193 50.42773,9.59765 1.65853,9.87503 0.8305,19.0172 -0.86133,28.05469 -1.34477,7.43069 -3.45968,25.42527 -12.89062,28.99024 -21.3868,8.08433 -53.9332,7.42626 -71.74414,-3.22071 -12.18251,-7.28243 -15.64751,-25.20771 -20.29297,-41.61328 0.13661,-7.80461 1.99231,-14.02777 8.05664,-16.3789 16.16913,-3.08167 31.95545,-5.313 47.30469,-5.42969 z m -126.37696,0.8418 c 10.51576,-0.10767 21.42715,1.20406 32.79297,4.14648 9.43984,5.29973 10.44563,11.05487 11.26953,16.82031 -5.13573,16.16209 -6.29679,32.5324 -13.93945,38.49219 -14.47414,11.28699 -41.56885,5.86448 -56.10547,-2.13281 -8.39731,-4.61976 -10.32568,-21.64532 -13.88086,-33.49414 -0.3938,-4.03185 -0.39446,-12.91356 1.13867,-16.82813 12.33802,-4.3808 25.20435,-6.86549 38.72461,-7.0039 z"
               style="opacity:1;fill:#030303;fill-opacity:1;stroke:none;stroke-width:7.55905533;stroke-linecap:round;stroke-linejoin:round;stroke-miterlimit:4;stroke-dasharray:none;stroke-dashoffset:0;stroke-opacity:1"
               inkscape:connector-curvature="0" />
            <path
               sodipodi:nodetypes="cccccc"
               inkscape:connector-curvature="0"
               id="path1005"
               d="m 80.114045,182.8759 c 5.643658,1.33861 12.700018,-0.0473 16.102989,5.61266 0.81411,2.06061 0.256817,2.97839 0.07615,4.21002 -0.818791,-1.22893 -1.672415,-2.41142 -3.016113,-2.94048 -3.662009,-0.5645 -7.024609,-1.4783 -11.693042,-0.86863 -3.678215,-2.12715 -2.238542,-4.05745 -1.469982,-6.01357 z"
               style="opacity:1;fill:#000000;fill-opacity:1;stroke:none;stroke-width:2;stroke-linecap:round;stroke-linejoin:round;stroke-miterlimit:4;stroke-dasharray:none;stroke-dashoffset:0;stroke-opacity:1" />
            <path
               sodipodi:nodetypes="cccccc"
               inkscape:connector-curvature="0"
               id="path1007"
               d="m 68.755082,183.77795 c 2.391019,-0.0168 5.142583,-0.71201 7.984677,-1.03567 1.436984,1.7617 2.558618,3.52958 -0.467722,5.3788 -3.288988,-0.20045 -4.985211,-0.40091 -7.216277,-0.60136 -1.018417,-0.24786 -1.15327,0.70339 -1.606663,1.22235 -1.037719,-3.09446 -0.412497,-4.5824 1.305985,-4.96412 z"
               style="opacity:1;fill:#000000;fill-opacity:1;stroke:none;stroke-width:2;stroke-linecap:round;stroke-linejoin:round;stroke-miterlimit:4;stroke-dasharray:none;stroke-dashoffset:0;stroke-opacity:1" />
            <path
               sodipodi:nodetypes="cccccccccccccccccccccsccccccccccccccccccccccccccccccccccccccccccccccc"
               inkscape:connector-curvature="0"
               id="path1009"
               d="m 52.53869,146.1875 -2.267857,-5.33892 -0.519716,-3.54352 3.165549,-1.08668 1.606399,-3.59078 2.740327,-0.23623 2.976562,-2.07887 -0.330729,-3.73252 2.220611,-3.35454 -0.04725,-2.92931 2.126115,-3.07106 1.228424,-3.30729 3.401784,-3.16555 3.96875,-1.55915 3.260045,-2.45685 2.173365,2.97657 2.740326,0.33072 2.078868,-1.32291 2.69308,-1.79539 4.393975,1.55915 4.582962,2.4096 c 0,0 3.732514,-3.77976 3.96875,-3.77976 0.236233,0 4.7247,2.83482 4.7247,2.83482 l 3.59078,3.77976 4.29948,0.94494 4.53571,-1.98437 4.29948,0.99219 0.85045,3.87425 2.17336,0.66146 2.59756,2.02865 0.13626,4.4137 3.3138,3.66851 -2.89182,5.01649 1.81124,4.80798 2.4483,1.17941 -2.42489,7.78057 2.10249,6.59421 -3.83775,5.82073 2.87341,5.51569 -4.19147,5.24028 -2.12612,4.29948 1.70089,2.55134 0.85045,2.03162 -2.50409,0.8032 -2.4096,2.36235 -3.07105,-1.6064 -2.50875,-10e-4 0.42987,-9.30673 1.7009,-7.41778 -1.97087,-7.96781 0.74245,-4.64714 -3.77977,-11.81176 -6.09486,-10.2526 -4.44122,-3.54341 -7.654024,-3.59077 -5.669643,-0.47247 -4.204985,0.89769 -5.905876,2.88207 -6.756326,5.66964 -3.732514,7.65402 -3.874257,8.92969 -2.645833,4.44122 0.425223,2.7167 -2.267964,0.79382 -2.858338,-0.10873 -1.204799,-1.51191 -0.803198,-3.87426 -2.267858,-2.97656 z"
               style="fill:#000000;fill-opacity:1;stroke:none;stroke-width:0.26458332px;stroke-linecap:butt;stroke-linejoin:miter;stroke-opacity:1" />
            <path
               sodipodi:nodetypes="cscccc"
               inkscape:connector-curvature="0"
               id="path1011"
               d="m 60.81828,181.50318 c 4.624711,12.85273 13.961549,30.98308 29.04411,19.72615 4.961021,-3.70268 11.62085,-17.22564 24.96705,-21.91932 1.72284,7.86059 -19.59628,44.2143 -33.828867,48.28645 -6.115826,-2.25763 -8.818641,-4.43621 -10.360137,-7.22164 -3.334033,-6.94921 -8.908766,-30.24732 -9.822156,-38.87164 z"
               style="opacity:1;fill:#000000;fill-opacity:1;stroke:none;stroke-width:2;stroke-linecap:round;stroke-linejoin:round;stroke-miterlimit:4;stroke-dasharray:none;stroke-dashoffset:0;stroke-opacity:1" />
            <path
               sodipodi:nodetypes="cccccc"
               inkscape:connector-curvature="0"
               id="path1013"
               d="m 75.359002,195.60788 c 3.106126,0.85209 6.689897,1.02184 10.677828,0.61421 l 2.504093,2.69309 -7.743425,4.0523 -7.139389,-3.62708 z"
               style="opacity:1;fill:#080808;fill-opacity:0.99500002;stroke:none;stroke-width:2;stroke-linecap:round;stroke-linejoin:round;stroke-miterlimit:4;stroke-dasharray:none;stroke-dashoffset:0;stroke-opacity:1" />
          </g>
        </g>
      </g>
      <rect
         y="97.963646"
         x="157.03654"
         height="36.598175"
         width="36.598175"
         id="rect1038"
         style="opacity:1;fill:#ffffff;fill-opacity:0;stroke:none;stroke-width:0.16599999;stroke-linecap:round;stroke-linejoin:round;stroke-miterlimit:4;stroke-dasharray:none;stroke-dashoffset:0;stroke-opacity:1" />
    </g>
  </g>
</svg>
